<?xml version="1.0" encoding="utf-8"?>
<!-- Generator: Adobe Illustrator 19.2.1, SVG Export Plug-In . SVG Version: 6.00 Build 0)  -->
<svg version="1.1" id="layer" xmlns="http://www.w3.org/2000/svg" xmlns:xlink="http://www.w3.org/1999/xlink" x="0px" y="0px"
	 viewBox="0 0 652 652" style="enable-background:new 0 0 652 652;" xml:space="preserve">
<style type="text/css">
	.st0{fill:#2F0F51;}
</style>
<path id="Combined-Shape" class="st0" d="M69.6,291.8c2.3,0.3,3.5,1.9,4.4,3.8c1.8,4,3.7,7.9,5.5,11.9
	c11.4,24.9,22.9,49.7,34.3,74.6c0.4,0.9,0.6,1.8,0.9,2.7c-0.1,1.8-1,3.1-2.5,3.9c-1.6,0.8-3.2,0.6-4.6-0.6c-0.8-0.7-1.4-1.6-1.8-2.6
	c-3.4-7.4-6.8-14.7-10.1-22.1c-0.4-0.9-0.9-1.1-1.8-1.1c-17.2,0-34.4,0-51.6,0c-1.1,0-1.5,0.3-2,1.3c-3.4,7.5-6.8,15-10.1,22.5
	c-0.8,1.9-2.1,3.1-4.3,3c-2.7-0.1-4.6-2.4-3.8-5.1c0.3-1.1,0.8-2.1,1.3-3.2c13-28.3,26.1-56.6,39.1-84.9
	C64.1,292.5,66.2,291.3,69.6,291.8z M469.5,292.7c6.6,0,13,1.3,18.8,4.5c9.9,5.4,14.6,13.8,14.1,25c-0.5,11-6.3,18.5-16.2,22.8
	c-3,1.3-6.3,2-9.4,2.9c-0.2,0.1-0.5,0.1-0.9,0.3c3.1,4.4,6.1,8.6,9.2,12.8c5,6.9,9.9,13.8,14.9,20.7c1.6,2.3,1.4,4.8-0.7,6.4
	c-2.1,1.6-4.7,1.2-6.4-1.1c-4.1-5.7-8.2-11.4-12.3-17.1c-4.7-6.5-9.4-13-14.1-19.5c-0.3-0.4-0.9-0.9-1.4-0.9c-9.3,0-18.5,0-27.8,0
	c-0.2,0-0.3,0-0.7,0.1v1.6c0,11.1,0,22.2,0,33.3c0,2.2-1.2,3.8-3.1,4.4c-1.8,0.6-3.9,0-4.9-1.7c-0.5-0.8-0.8-1.8-0.8-2.7
	c0-30.2,0-60.4,0-90.5c0-0.4,0.1-0.8,0.1-1.3h1.5l0,0C442.7,292.7,456.1,292.6,469.5,292.7z M237.5,296.3c0,29.6,0,59.2,0,88.8
	c0,3.2-3.4,5-6.2,3.3c-0.8-0.5-1.6-1.3-2.2-2c-12.5-15.4-24.9-30.7-37.3-46.1l-26.3-32.5l0,0c-0.2-0.3-0.5-0.5-0.9-1l0,77.6l0,0
	c0,3-1.7,4.8-4.4,4.8c-2.2,0-3.9-1.6-4.1-3.9c0-0.5,0-1,0-1.5l0-86.2l0,0c0-2.7,0.9-4.4,3-5.1c2.3-0.8,4.9-0.2,6.5,1.8
	c4.2,5.2,8.4,10.4,12.6,15.5c16.7,20.6,33.3,41.2,50,61.8c0.2,0.3,0.5,0.6,1.1,1.1v-2.1c0-24.4,0-48.8,0-73.2c0-2.9,0.9-4.5,3.1-5.1
	C234.8,291.5,237.5,293.4,237.5,296.3z M615.6,292.7c3.8,0,5.7,1.4,5.7,4.1c0,2.7-2,4.2-5.8,4.2h-54.4l0,0v35l0,0h1.7
	c14.8,0,29.5,0,44.3,0c2.6,0,4.2,1.3,4.6,3.5c0.4,2.5-1.4,4.7-3.9,4.8l-2.4,0l0,0l-4.8,0l0,0h-39.6l0,0v35.9l0,0c0.6,0,1.2,0,1.8,0
	c17.8,0,35.5,0,53.3,0c2.6,0,4.6,0.6,5.8,3.1v2.1l0,0c-1,2.4-2.8,3.2-5.3,3.2c-20.9-0.1-41.9,0-62.8,0h-1.6l0,0v-95.9l0,0H615.6
	L615.6,292.7z M329.2,292.7c13.5,0.3,25.6,4.6,35.5,14.2c7.2,7,11.5,15.6,13,25.5c1.6,10.3,0.5,20.4-4.2,29.8
	c-6.5,12.9-17.1,20.8-30.9,24.6c-4.8,1.3-9.8,1.9-14.8,1.9c-10.3,0-20.6,0-30.9,0h-1.5l0,0v-95.8l0,0c0.5,0,0.9-0.1,1.3-0.1
	C307.5,292.7,318.4,292.5,329.2,292.7z M305.5,301.1c-0.4,0-0.8,0-1.2,0.1v79.1l0,0h1.7l0,0c7.1,0,14.2,0.1,21.3,0
	c3.4-0.1,6.8-0.3,10.1-0.9c9-1.7,16.7-5.8,22.8-12.8c10.6-12.1,11.7-31.6,4.4-44.9c-7.7-13.8-20-20-35.4-20.6
	C321.3,300.8,313.4,301,305.5,301.1z M68.2,302.9C60.4,320.1,52.7,337,44.9,354h46.5l0,0C83.7,337,76,320.1,68.2,302.9z
	 M437.2,301.1c-0.2,0-0.4,0.1-0.7,0.1v40.3l0,0h1.2l0,0c10.2,0,20.4,0,30.7,0c4.1,0,8.1-0.7,11.9-2.2c7.7-3,12.6-8.4,13.2-16.9
	c0.5-6.7-1.6-12.4-7.2-16.4c-4.7-3.4-10.1-4.7-15.7-4.8C459.5,300.9,448.4,301.1,437.2,301.1z M602.9,252.9c1.4,0.6,2.7,1.3,3.1,2.9
	c0.6,2.2-0.4,4.1-2.7,4.9c-6.6,2.6-13.2,5.2-19.8,7.8c-4.5,1.8-8.9,3.6-13.4,5.3c-3.1,1.2-6-1.2-5.4-4.4c0.3-1.5,1.3-2.4,2.7-3
	c8.9-3.5,17.8-7,26.8-10.5c2.4-1,4.9-2,7.3-2.9H602.9L602.9,252.9z"/>
</svg>
