<svg xmlns="http://www.w3.org/2000/svg" width="90" height="90" fill="none"><circle cx="45" cy="45" r="43.5" stroke="url(#a)" stroke-width="3"/><circle cx="45.156" cy="44.844" r="31.199" stroke="url(#b)" stroke-width="3"/><path fill="url(#c)" d="M55.358 53.221c0 1.454-.378 2.762-1.134 3.924-.755 1.134-1.802 2.035-3.139 2.703-1.308.669-2.834 1.003-4.578 1.003a.607.607 0 0 0-.261.044.296.296 0 0 0-.088.218v3.008c0 .233-.101.349-.305.349h-1.046c-.204 0-.305-.073-.305-.218v-3.14c0-.116-.015-.188-.044-.217-.029-.03-.087-.044-.174-.044-2.587 0-4.694-.45-6.322-1.351-1.599-.901-2.95-2.238-4.055-4.011-.174-.291-.145-.51.088-.654l.697-.436a.865.865 0 0 1 .392-.088c.146 0 .247.044.306.131 1.104 1.483 2.31 2.616 3.618 3.4 1.337.757 3.067 1.135 5.189 1.135.203 0 .305-.102.305-.306V45.984a.887.887 0 0 0-.262-.654c-.174-.203-.421-.378-.741-.523-2.093-.96-3.764-1.831-5.014-2.616-1.25-.814-2.15-1.7-2.703-2.66-.523-.959-.785-2.121-.785-3.487 0-1.599.393-2.994 1.177-4.186.785-1.22 1.86-2.194 3.227-2.921 1.395-.756 2.979-1.192 4.752-1.308a.296.296 0 0 0 .305-.305v-2.442c0-.087.015-.16.044-.218a.296.296 0 0 1 .218-.087h1.046c.145 0 .233.044.262.13.058.06.087.16.087.306v2.354c0 .204.102.306.305.306 1.802.145 3.357.581 4.665 1.308 1.337.697 2.558 1.642 3.662 2.833.233.233.233.437 0 .61l-1.002.742c-.117.087-.204.116-.262.087-.058-.029-.16-.13-.305-.305-.698-.872-1.642-1.599-2.834-2.18-1.163-.61-2.441-1.003-3.837-1.177-.145-.03-.247-.015-.305.044-.058.058-.087.16-.087.305v13.167c0 .29.16.508.48.654l1.177.523c1.656.697 3.052 1.482 4.185 2.354 1.134.843 1.977 1.802 2.529 2.878.581 1.075.872 2.31.872 3.705Zm-10.9-23.368c0-.262-.145-.364-.436-.306-2.034.175-3.691.858-4.97 2.05-1.279 1.191-1.918 2.688-1.918 4.49 0 .814.188 1.584.566 2.31.378.699 1.032 1.396 1.962 2.094.96.668 2.267 1.38 3.924 2.136.233.116.436.145.61.087.175-.087.262-.276.262-.567V29.853Zm1.7 28.862c0 .174.102.261.306.261 2.063 0 3.706-.566 4.926-1.7 1.221-1.134 1.831-2.543 1.831-4.229 0-1.57-.494-2.863-1.482-3.88-.988-1.047-2.601-2.05-4.84-3.009-.203-.087-.377-.101-.523-.043-.145.029-.218.16-.218.392v12.208Z"/><defs><linearGradient id="a" x1="51.228" x2="33.789" y1="52.318" y2="86.73" gradientUnits="userSpaceOnUse"><stop offset=".185" stop-color="#D91149"/><stop offset="1" stop-color="#D91149" stop-opacity="0"/></linearGradient><linearGradient id="b" x1="59.948" x2="66.799" y1="31.297" y2="24.135" gradientUnits="userSpaceOnUse"><stop stop-color="#4F1941"/><stop offset="1" stop-color="#4F1941" stop-opacity="0"/></linearGradient><linearGradient id="c" x1="55.433" x2="44.533" y1="24.602" y2="62.595" gradientUnits="userSpaceOnUse"><stop offset=".191" stop-color="#D91149"/><stop offset="1" stop-color="#D91149" stop-opacity="0"/></linearGradient></defs></svg>