<svg xmlns="http://www.w3.org/2000/svg" width="113" height="84" fill="none"><path stroke="url(#a)" stroke-linecap="round" stroke-width="3" d="M63.82 1.888c19.788-3.567 36.977 18.945 19.788 41.679"/><path stroke="url(#b)" stroke-linecap="round" stroke-width="3" d="M94.325 61.129c7.292 1.983 28.966-16.752 7.292-34.826"/><path stroke="url(#c)" stroke-linecap="round" stroke-width="3" d="M104.086 67.914c-.134 3.32 0 11.509-10.644 12.837h-31.53c-2.075-.443-6.225-2.922-6.225-9.296"/><path stroke="url(#d)" stroke-linecap="round" stroke-width="3" d="M55.687 5.497v67.968c0 2.722-1.205 8.165-6.023 8.165H22.56c-4.685.147-14.054-2.251-14.054-13.02"/><path stroke="url(#e)" stroke-linecap="round" stroke-width="3" d="M55.28 5.234c-6.04-2.622-19.968-5.782-27.37 2.55-9.251 10.417-8.866 25.934 0 34.012"/><path stroke="url(#f)" stroke-linecap="round" stroke-width="3" d="M14.065 24.975c-9.222 0-23.856 30.322 4.61 34.528"/><defs><linearGradient id="a" x1="77.243" x2="61.543" y1="1.513" y2="-.36" gradientUnits="userSpaceOnUse"><stop stop-color="#4F1941"/><stop offset=".855" stop-color="#4F1941" stop-opacity="0"/></linearGradient><linearGradient id="b" x1="100.222" x2="93.595" y1="51.313" y2="60.762" gradientUnits="userSpaceOnUse"><stop offset=".268" stop-color="#4F1941"/><stop offset=".69" stop-color="#4F1941" stop-opacity="0"/></linearGradient><linearGradient id="c" x1="66.871" x2="51.661" y1="76.324" y2="80.101" gradientUnits="userSpaceOnUse"><stop stop-color="#4F1941"/><stop offset="1" stop-color="#4F1941" stop-opacity="0"/></linearGradient><linearGradient id="d" x1="51.416" x2="7.688" y1="81.636" y2="66.784" gradientUnits="userSpaceOnUse"><stop offset=".502" stop-color="#D91149"/><stop offset="1" stop-color="#D91149" stop-opacity="0"/></linearGradient><linearGradient id="e" x1="4.034" x2="59.606" y1="14.351" y2="10.236" gradientUnits="userSpaceOnUse"><stop offset=".383" stop-color="#D91149"/><stop offset=".811" stop-color="#D91149" stop-opacity="0"/></linearGradient><linearGradient id="f" x1="10.338" x2="24.157" y1="24.975" y2="54.672" gradientUnits="userSpaceOnUse"><stop offset=".176" stop-color="#D91149"/><stop offset="1" stop-color="#D91149" stop-opacity="0"/></linearGradient></defs></svg>