<svg xmlns="http://www.w3.org/2000/svg" width="108" height="107" fill="none"><path stroke="url(#a)" stroke-width="3" d="M106.5 40.403c0 21.018-17.272 38.09-38.621 38.09-21.35 0-38.622-17.072-38.622-38.09 0-21.018 17.273-38.09 38.622-38.09S106.5 19.384 106.5 40.403Z"/><path stroke="url(#b)" stroke-width="3" d="M93.367 40.511c0 13.792-11.413 25.024-25.555 25.024-14.141 0-25.554-11.231-25.554-25.024 0-13.792 11.413-25.023 25.554-25.023 14.142 0 25.555 11.231 25.555 25.023Z"/><path stroke="url(#c)" stroke-linecap="round" stroke-width="7" d="m39.273 68.012-4.488 4.428"/><rect width="37.24" height="12.727" x="2.135" y=".056" stroke="url(#d)" stroke-width="3" rx="6.364" transform="matrix(.72998 -.68347 .69311 .72083 .538 96.358)"/><defs><linearGradient id="a" x1="67.912" x2="103.396" y1="56.113" y2="58.249" gradientUnits="userSpaceOnUse"><stop offset=".458" stop-color="#D91149"/><stop offset="1" stop-color="#D91149" stop-opacity="0"/></linearGradient><linearGradient id="b" x1="71.678" x2="27.184" y1="40.53" y2="27.79" gradientUnits="userSpaceOnUse"><stop offset=".286" stop-color="#4F1941"/><stop offset=".582" stop-color="#4F1941" stop-opacity="0"/></linearGradient><linearGradient id="c" x1="34.258" x2="38.933" y1="73.102" y2="68.013" gradientUnits="userSpaceOnUse"><stop stop-color="#D91149"/><stop offset="1" stop-color="#D91149" stop-opacity="0"/></linearGradient><linearGradient id="d" x1="42.383" x2="3.12" y1="7.323" y2="7.613" gradientUnits="userSpaceOnUse"><stop offset=".163" stop-color="#D91149"/><stop offset="1" stop-color="#D91149" stop-opacity="0"/></linearGradient></defs></svg>