<svg xmlns="http://www.w3.org/2000/svg" width="151" height="70" fill="none"><path fill="#fff" d="M51.407 49.41c0-4.144 3.4-5.618 7.715-7.055 3.814-1.27 7.425-2.83 7.36-6.683-.04-2.093-1.702-3.116-3.404-3.116-1.84 0-3.648 1.146-3.648 3.361-.013.625.149 1.24.47 1.779.32.538.784.977 1.343 1.27a.2.2 0 0 1 .07.224.202.202 0 0 1-.043.071c-.349.356-.77.636-1.234.821a3.613 3.613 0 0 1-1.466.253c-1.868 0-3.736-1.11-3.736-3.157 0-3.49 3.612-5.25 7.508-5.25 4.647 0 9.164 2.497 9.164 7.501v9.981a12.613 12.613 0 0 0 .874 4.723.189.189 0 0 1-.03.208.193.193 0 0 1-.204.055c-6.312-1.906-10.08.837-13.636.787-3.786-.032-7.103-2.083-7.103-5.773Zm14.307-9.844c-2.696 3.034-8.708 4.308-8.667 9.271.05 2.598 1.675 3.958 3.933 4.413a4.013 4.013 0 0 0 3.294-.827 3.93 3.93 0 0 0 1.066-1.362 3.89 3.89 0 0 0 .374-1.682v-9.813ZM80.665 49.083V36.532c0-.876.33-1.72.926-2.369a3.58 3.58 0 0 1 2.295-1.139.384.384 0 0 0 .34-.277.35.35 0 0 0-.187-.42.363.363 0 0 0-.163-.035h-3.22v-5.914a.113.113 0 0 0-.09-.134.116.116 0 0 0-.135.088 9.884 9.884 0 0 1-2.757 3.796 10.033 10.033 0 0 1-4.213 2.118.161.161 0 0 0-.13.13.157.157 0 0 0 .08.166c.427.225.782.564 1.026.977.244.414.366.887.354 1.366v14.157c0 4.303 3.363 6.105 8.901 6.223a.125.125 0 0 0 .124-.092.123.123 0 0 0-.063-.14c-1.519-.76-3.088-2.124-3.088-5.95ZM101.082 54.578a.355.355 0 0 1-.289-.157.338.338 0 0 1-.029-.325c.967-2.197.856-3.234.856-5.914v-9.64c0-2.338-.745-3.484-1.84-3.484-1.743 0-4.5 3.234-6.192 8.643a15.05 15.05 0 0 0-.653 4.477c0 2.688 0 3.725.888 5.914a.342.342 0 0 1-.17.415.353.353 0 0 1-.157.04h-6.9a.358.358 0 0 1-.29-.158.348.348 0 0 1-.033-.325c.971-2.197.86-3.234.86-5.914V32.842a7.049 7.049 0 0 0-1.103-4.5.325.325 0 0 1 .08-.45.334.334 0 0 1 .159-.059 20.414 20.414 0 0 0 6.201-1.783.335.335 0 0 1 .442.134c.028.05.042.105.041.162v17.92c1.38-5.21 5.02-12.343 9.748-12.343 3.681 0 4.808 3.69 4.766 6.888l-.041 4.267v5.1c0 2.688 0 3.725.888 5.914a.344.344 0 0 1-.166.413.354.354 0 0 1-.156.041l-6.91.032ZM110.301 43.997c0-5.946 4.564-11.687 11.961-11.933 5.728-.205 8.465 2.789 8.548 5.946.082 4.14-4.233 6.97-9.5 6.97a11.832 11.832 0 0 1-4.808-.983c.46 4.43 3.069 8.407 7.586 8.407 3.073 0 5.829-2.73 7.044-6.092a.2.2 0 0 1 .229-.134c.032.005.062.019.088.039a.2.2 0 0 1 .078.204 10.688 10.688 0 0 1-3.655 6.27 10.902 10.902 0 0 1-6.852 2.542c-7.149 0-10.719-5.577-10.719-11.236Zm15.554-6.397c.083-3.08-1.38-5.004-3.193-5.004-3.542 0-5.631 3.972-6.118 7.952a3.295 3.295 0 0 0 1.904 3.424c.427.198.891.304 1.362.311h.032c3.566-.018 5.93-2.788 6.013-6.683ZM151.001 35.508a4.012 4.012 0 0 1-1.194 2.796 4.098 4.098 0 0 1-2.827 1.18 3.123 3.123 0 0 1-1.38-.337.238.238 0 0 1-.126-.166.24.24 0 0 1 .052-.202c.415-.556.637-1.23.635-1.92 0-1.392-.787-2.338-1.863-2.338-2.116 0-4.274 4.43-4.274 10.5v3.184c0 2.698 0 3.73.897 5.96a.308.308 0 0 1-.016.31.317.317 0 0 1-.278.144h-7.002a.325.325 0 0 1-.294-.455c.984-2.22.874-3.252.874-5.946v-8.857a7.065 7.065 0 0 0-1.123-4.526.326.326 0 0 1-.059-.15.317.317 0 0 1 .275-.346c2.169-.262 4.28-.87 6.252-1.797a.326.326 0 0 1 .42.133c.026.047.04.1.04.154v7.064c.874-3.639 2.862-7.952 6.97-7.952 2.618 0 4.021 1.68 4.021 3.567Z"/><path fill="#fff" d="M44.318 53.168c-8.423 0-15.927 2.602-15.927-2.893a2.944 2.944 0 0 1 .796-2.002c.92 1.07 3.253 3.185 9.229 3.185 8.165 0 12.08-4.836 12.08-9.84 0-3.399-2.024-6.924-6.197-8.594-.06-.023-.63-.19-.657-.205a15.67 15.67 0 0 0-5.185-.837c-8.207 0-12.08 4.873-11.993 9.668a9.205 9.205 0 0 0 1.932 5.681c.092.123.193.237.294.355-5.828 3.34-4.508 12.738 7.964 10.918 6.33-.91 13.097-1.915 13.097 4.095 0 4.162-4.186 6.883-7.936 6.883-6.666 0-11-4.74-18.25-9.099a50.563 50.563 0 0 0-4.057-2.192 28.585 28.585 0 0 0-4.108-1.547c-4.564-1.365-8.446-.455-11.786 1.069 3.68-5.641 20.67-7.961 20.67-17.742 0-5.414-5.402-8.189-11.525-8.189-5.148 0-10.042 2.707-10.042 7.652 0 3.185 2.3 5.072 4.894 5.072a4.233 4.233 0 0 0 2.452-.764.237.237 0 0 0 .075-.302.237.237 0 0 0-.075-.084c-1.453-1.065-2.3-3.008-2.3-5.36-.02-.72.107-1.436.375-2.105a5.303 5.303 0 0 1 1.184-1.789 5.373 5.373 0 0 1 1.802-1.182c.676-.269 1.4-.399 2.127-.383 2.508 0 5.02 1.734 5.02 5.496 0 10.832-14.772 13.561-17.284 21.836a.076.076 0 0 0 .028.091.078.078 0 0 0 .096-.004c4.656-3.144 11.616-.774 16.423 2.329.11.073.221.136.332.205 8.832 5.613 16.786 7.365 23.282 7.365 7.227 0 11.248-4.627 11.248-9.554 0-4.926-3.298-7.233-8.078-7.233Zm-5.732-20.73c3.956 0 5.87 4.458 5.87 9.17 0 4.586-2.001 9.422-5.87 9.422-3.957 0-5.98-4.627-5.98-9.422.022-4.544 2.023-9.17 5.98-9.17Z"/><path fill="#fff" d="M51.706 26.85a2.483 2.483 0 0 0-2.346-.418 2.538 2.538 0 0 0-1.064.675c-.291.31-.498.689-.602 1.1a6.255 6.255 0 0 1-1.601 3.007 6.364 6.364 0 0 1-2.953 1.742v.059l.166.291v.04c1.231-.074 2.44-.359 3.574-.84a8.28 8.28 0 0 0 3.084-2.165 8.16 8.16 0 0 0 1.788-3.295.166.166 0 0 0-.046-.195Z"/><path fill="#D91149" d="M11.576 19.45c-1.667 0-3.092-.292-4.275-.875-1.167-.583-2.109-1.342-2.825-2.275A9.549 9.549 0 0 1 2.9 13.275c-.334-1.1-.5-2.158-.5-3.175v-.55c0-1.1.166-2.2.5-3.3.35-1.1.883-2.1 1.6-3 .716-.9 1.65-1.625 2.8-2.175C8.45.525 9.826.25 11.426.25c1.633 0 3.033.283 4.2.85 1.166.567 2.091 1.358 2.775 2.375.683 1.017 1.1 2.217 1.25 3.6h-2.5c-.134-1.033-.467-1.883-1-2.55A4.844 4.844 0 0 0 14.126 3c-.8-.333-1.7-.5-2.7-.5-1.084 0-2.034.192-2.85.575-.817.367-1.5.892-2.05 1.575A7.203 7.203 0 0 0 5.3 6.975a9.907 9.907 0 0 0-.4 2.875c0 .983.133 1.917.4 2.8A7.23 7.23 0 0 0 6.55 15a6.14 6.14 0 0 0 2.1 1.625c.833.383 1.808.575 2.925.575 1.566 0 2.883-.392 3.95-1.175 1.066-.783 1.716-1.917 1.95-3.4h2.5A8.059 8.059 0 0 1 18.7 16.05c-.667 1.033-1.6 1.858-2.8 2.475-1.184.617-2.625.925-4.325.925ZM29.324 19.45c-1.167 0-2.192-.2-3.075-.6a7.094 7.094 0 0 1-2.25-1.575 7.19 7.19 0 0 1-1.375-2.225c-.3-.817-.45-1.65-.45-2.5v-.45c0-.85.158-1.683.475-2.5a6.62 6.62 0 0 1 1.4-2.225 6.601 6.601 0 0 1 2.25-1.575c.883-.4 1.891-.6 3.025-.6 1.133 0 2.141.2 3.025.6a6.6 6.6 0 0 1 2.25 1.575 6.617 6.617 0 0 1 1.4 2.225 6.86 6.86 0 0 1 .475 2.5v.45a6.86 6.86 0 0 1-.475 2.5 6.612 6.612 0 0 1-1.375 2.225c-.6.65-1.342 1.175-2.225 1.575-.884.4-1.909.6-3.075.6Zm0-2.15c1 0 1.85-.217 2.55-.65a4.34 4.34 0 0 0 1.625-1.8c.383-.75.575-1.592.575-2.525 0-.95-.192-1.8-.575-2.55A4.344 4.344 0 0 0 31.849 8c-.7-.433-1.542-.65-2.525-.65-.967 0-1.809.217-2.525.65a4.345 4.345 0 0 0-1.65 1.775c-.384.75-.575 1.6-.575 2.55 0 .933.183 1.775.55 2.525.383.75.925 1.35 1.625 1.8.716.433 1.575.65 2.575.65ZM40.068 19V5.65h1.9v5.725h-.3c0-1.317.175-2.425.525-3.325.367-.917.917-1.608 1.65-2.075.734-.483 1.659-.725 2.775-.725h.1c1.684 0 2.925.525 3.725 1.575.817 1.05 1.225 2.567 1.225 4.55V19h-2.4v-8.125c0-1.033-.291-1.858-.875-2.475-.583-.633-1.383-.95-2.4-.95-1.05 0-1.9.325-2.55.975-.65.65-.975 1.517-.975 2.6V19h-2.4ZM60.434 19.4c-1.75 0-3.108-.375-4.075-1.125-.95-.75-1.441-1.775-1.474-3.075h2.25c.033.517.291 1.008.775 1.475.5.45 1.341.675 2.525.675 1.066 0 1.883-.208 2.45-.625.566-.433.85-.958.85-1.575 0-.55-.209-.975-.626-1.275-.416-.317-1.091-.525-2.025-.625l-1.45-.15c-1.266-.133-2.3-.508-3.1-1.125-.8-.633-1.2-1.517-1.2-2.65 0-.85.217-1.575.65-2.175.434-.617 1.034-1.083 1.8-1.4.767-.333 1.65-.5 2.65-.5 1.5 0 2.717.333 3.65 1 .934.667 1.417 1.658 1.45 2.975h-2.25c-.016-.533-.266-.983-.75-1.35-.466-.383-1.166-.575-2.1-.575-.933 0-1.641.192-2.124.575-.484.383-.726.867-.726 1.45 0 .5.167.9.5 1.2.35.3.917.492 1.7.575l1.45.15c1.434.15 2.584.55 3.45 1.2.867.633 1.3 1.533 1.3 2.7 0 .833-.241 1.575-.724 2.225-.467.633-1.117 1.133-1.95 1.5-.834.35-1.792.525-2.876.525ZM74.088 19.4c-1.584 0-2.8-.517-3.65-1.55-.85-1.033-1.275-2.525-1.275-4.475v-7.75h2.4v8.225c0 1.05.283 1.875.85 2.475.567.583 1.333.875 2.3.875 1 0 1.817-.317 2.45-.95.633-.65.95-1.533.95-2.65V5.625h2.4V19h-1.9v-5.725h.3c0 1.317-.175 2.433-.525 3.35-.35.9-.875 1.592-1.575 2.075-.684.467-1.559.7-2.625.7h-.1ZM85.311 19V.75h2.4V19h-2.4Zm-1.85-16.35V.75h4.25v1.9h-4.25ZM97.514 19.15c-1 0-1.866-.142-2.6-.425a3.305 3.305 0 0 1-1.675-1.45c-.383-.7-.575-1.642-.575-2.825V1.6h2.3v13.15c0 .717.192 1.275.575 1.675.4.383.959.575 1.675.575h2.35v2.15h-2.05Zm-7.15-11.7v-1.8h9.2v1.8h-9.2ZM109.011 19.45c-1.166 0-2.191-.2-3.075-.6a7.1 7.1 0 0 1-2.25-1.575 7.195 7.195 0 0 1-1.375-2.225c-.3-.817-.45-1.65-.45-2.5v-.45c0-.85.159-1.683.475-2.5a6.634 6.634 0 0 1 1.4-2.225 6.607 6.607 0 0 1 2.25-1.575c.884-.4 1.892-.6 3.025-.6 1.134 0 2.142.2 3.025.6a6.588 6.588 0 0 1 2.25 1.575 6.603 6.603 0 0 1 1.4 2.225c.317.817.475 1.65.475 2.5v.45c0 .85-.158 1.683-.475 2.5a6.608 6.608 0 0 1-1.375 2.225c-.6.65-1.341 1.175-2.225 1.575-.883.4-1.908.6-3.075.6Zm0-2.15c1 0 1.85-.217 2.55-.65a4.333 4.333 0 0 0 1.625-1.8c.384-.75.575-1.592.575-2.525 0-.95-.191-1.8-.575-2.55A4.34 4.34 0 0 0 111.536 8c-.7-.433-1.541-.65-2.525-.65-.966 0-1.808.217-2.525.65a4.353 4.353 0 0 0-1.65 1.775c-.383.75-.575 1.6-.575 2.55 0 .933.184 1.775.55 2.525.384.75.925 1.35 1.625 1.8.717.433 1.575.65 2.575.65ZM119.756 19V5.65h1.9v5.5h-.1c0-1.95.425-3.375 1.275-4.275.866-.917 2.158-1.375 3.875-1.375h.45v2.15h-.85c-1.334 0-2.359.358-3.075 1.075-.717.7-1.075 1.717-1.075 3.05V19h-2.4ZM130.66 19V5.65h2.4V19h-2.4Zm-2.05-11.45v-1.9h4.45v1.9h-4.45Zm2.725-4.05c-.534 0-.934-.142-1.2-.425-.25-.283-.375-.642-.375-1.075 0-.433.125-.792.375-1.075.266-.283.666-.425 1.2-.425.533 0 .925.142 1.175.425.266.283.4.642.4 1.075 0 .433-.134.792-.4 1.075-.25.283-.642.425-1.175.425ZM145.775 19v-4h-.4v-4.625c0-.917-.242-1.608-.725-2.075-.467-.467-1.158-.7-2.075-.7-.517 0-1.05.008-1.6.025s-1.075.033-1.575.05-.933.042-1.3.075v-2.1c.367-.033.75-.058 1.15-.075a16 16 0 0 1 1.275-.05c.433-.017.85-.025 1.25-.025 1.367 0 2.483.167 3.35.5.867.317 1.508.842 1.925 1.575.417.733.625 1.725.625 2.975V19h-1.9Zm-4.375.35c-1 0-1.867-.167-2.6-.5a3.955 3.955 0 0 1-1.675-1.5c-.383-.65-.575-1.433-.575-2.35 0-.95.208-1.742.625-2.375.433-.633 1.058-1.108 1.875-1.425.817-.333 1.8-.5 2.95-.5h3.625v1.8H141.9c-.967 0-1.708.233-2.225.7-.517.467-.775 1.067-.775 1.8 0 .733.258 1.325.775 1.775.517.45 1.258.675 2.225.675.567 0 1.108-.1 1.625-.3a2.878 2.878 0 0 0 1.275-1.05c.35-.5.542-1.183.575-2.05l.65.95c-.083.95-.317 1.75-.7 2.4a3.62 3.62 0 0 1-1.55 1.45c-.65.333-1.442.5-2.375.5Z"/></svg>