<svg xmlns="http://www.w3.org/2000/svg" width="960" height="719" fill="none"><path fill="url(#a)" d="M808.799 401.23c-157.259 0-297.236 49.157-297.236-54.577a55.973 55.973 0 0 1 14.794-38.064c17.537 20.212 60.774 59.997 172.182 59.997 152.476 0 225.494-91.302 225.494-185.792 0-64.14-37.752-130.64-115.68-162.2-1.021-.446-11.67-3.634-12.308-3.826A288.427 288.427 0 0 0 699.304.956c-153.369.255-225.43 92.386-223.517 182.922a174.933 174.933 0 0 0 36.158 107.241c1.722 2.296 3.571 4.464 5.485 6.376-108.858 62.993-84.242 240.368 148.65 206.066 118.167-17.405 244.561-36.15 244.561 77.53 0 78.614-78.119 129.939-148.14 129.939-124.544 0-205.406-89.261-340.792-171.382-23.531-14.154-48.466-28.181-75.76-41.378a511.497 511.497 0 0 0-76.525-29.202c-85.198-25.503-157.705-8.543-220.01 20.212 67.917-106.221 385.432-150.023 385.432-334.475C434.846 52.792 333.96 0 219.619 0 123.516 0 32.196 51.007 32.196 144.412c0 59.869 42.918 95.637 91.32 95.637a78.58 78.58 0 0 0 45.788-14.345 4.594 4.594 0 0 0 0-7.333c-27.039-20.02-42.599-56.425-42.599-101.056 0-67.074 52.42-102.97 102.48-102.97 46.808 0 93.552 32.836 93.552 103.735 0 204.472-275.746 255.989-322.681 412.451a1.53 1.53 0 0 0 2.36 1.658c86.92-59.359 216.821-14.601 306.61 43.929l6.377 3.889C480.251 685.973 628.837 719 750.002 719 884.942 719 960 631.651 960 538.82c0-93.916-61.858-137.59-151.201-137.59ZM701.855 9.946c73.847 0 109.559 84.161 109.559 173.103 0 86.52-37.306 177.886-109.559 177.886-73.91 0-111.216-87.349-111.216-177.886-.064-85.754 37.306-173.103 111.216-173.103Z" opacity=".7"/><defs><linearGradient id="a" x1="480" x2="480" y1="794" y2="-111.5" gradientUnits="userSpaceOnUse"><stop stop-color="#4F1941"/><stop offset="1" stop-color="#4F1941" stop-opacity="0"/></linearGradient></defs></svg>