<svg xmlns="http://www.w3.org/2000/svg" width="48" height="40" fill="none"><path fill="#F9F7EF" d="M39.766 24.55c-7.544 0-14.261 2.352-14.261-2.625a2.695 2.695 0 0 1 .713-1.81c.841.969 2.916 2.851 8.264 2.851 7.316 0 10.817-4.385 10.817-8.92a8.414 8.414 0 0 0-5.547-7.78l-.592-.185a13.854 13.854 0 0 0-4.642-.756c-7.352 0-10.817 4.421-10.74 8.764a8.407 8.407 0 0 0 1.998 5.469c-5.22 3.016-4.043 11.53 7.13 9.883 5.705-.834 11.73-1.733 11.73 3.722 0 3.772-3.75 6.232-7.13 6.232-5.969 0-9.848-4.278-16.344-8.221a46.333 46.333 0 0 0-3.63-1.99 25.564 25.564 0 0 0-3.679-1.426 14.261 14.261 0 0 0-10.532 1.034c3.273-5.113 18.54-7.209 18.54-16.065 0-4.899-4.842-7.423-10.325-7.423-4.614 0-8.992 2.446-8.992 6.93a4.35 4.35 0 0 0 4.378 4.593 3.78 3.78 0 0 0 2.196-.713.214.214 0 0 0 0-.35c-1.305-.97-2.046-2.723-2.046-4.856a4.806 4.806 0 0 1 4.891-4.934c2.247 0 4.493 1.576 4.493 4.992 0 9.811-13.228 12.286-15.474 19.787a.071.071 0 0 0 .114.078c4.165-2.852 10.397-.713 14.704 2.14l.3.185c7.907 5.084 15.03 6.667 20.85 6.667 6.467 0 10.068-4.185 10.068-8.642s-2.967-6.632-7.252-6.632ZM34.639 5.773c3.565 0 5.255 4.036 5.255 8.3 0 4.158-1.79 8.557-5.255 8.557-3.466 0-5.334-4.214-5.334-8.557 0-4.114 1.79-8.3 5.334-8.3Z"/><path fill="#F9F7EF" d="M46.419.712a2.218 2.218 0 0 0-2.14-.378 2.268 2.268 0 0 0-1.49 1.604 5.704 5.704 0 0 1-4.078 4.278v.05l.142.264a9.498 9.498 0 0 0 3.195-.756 7.422 7.422 0 0 0 4.37-4.898.142.142 0 0 0 0-.164Z"/></svg>