<svg xmlns="http://www.w3.org/2000/svg" width="1920" height="282" fill="none"><path stroke="#D91149" d="m0 281 140.121-94.917h158.954L460.29 130.25l148.408 36.291 147.654-88.403 174.774-19.541 198.884-45.598 182.31 45.598 150.66 107.944 145.4-62.347h167.24L1920 207"/><circle cx="142" cy="185.999" r="5.556" fill="#D91149"/><circle cx="142" cy="186" r="9.5" stroke="#D91149"/><circle cx="142" cy="186" r="13.5" stroke="#D91149" stroke-opacity=".5"/><circle cx="301" cy="185.999" r="5.556" fill="#D91149"/><circle cx="301" cy="186" r="9.5" stroke="#D91149"/><circle cx="301" cy="186" r="13.5" stroke="#D91149" stroke-opacity=".5"/><circle cx="462" cy="130.999" r="5.556" fill="#D91149"/><circle cx="462" cy="131" r="9.5" stroke="#D91149"/><circle cx="462" cy="131" r="13.5" stroke="#D91149" stroke-opacity=".5"/><circle cx="610" cy="165.999" r="5.556" fill="#D91149"/><circle cx="610" cy="166" r="9.5" stroke="#D91149"/><circle cx="610" cy="166" r="13.5" stroke="#D91149" stroke-opacity=".5"/><circle cx="757" cy="77.999" r="5.556" fill="#D91149"/><circle cx="757" cy="77.999" r="9.5" stroke="#D91149"/><circle cx="757" cy="77.999" r="13.5" stroke="#D91149" stroke-opacity=".5"/><circle cx="934" cy="57.999" r="5.556" fill="#D91149"/><circle cx="934" cy="57.999" r="9.5" stroke="#D91149"/><circle cx="934" cy="57.999" r="13.5" stroke="#D91149" stroke-opacity=".5"/><circle cx="1131" cy="13.999" r="5.556" fill="#D91149"/><circle cx="1131" cy="13.999" r="9.5" stroke="#D91149"/><circle cx="1131" cy="13.999" r="13.5" stroke="#D91149" stroke-opacity=".5"/><circle cx="1312" cy="58.999" r="5.556" fill="#D91149"/><circle cx="1312" cy="58.999" r="9.5" stroke="#D91149"/><circle cx="1312" cy="58.999" r="13.5" stroke="#D91149" stroke-opacity=".5"/><circle cx="1464" cy="165.999" r="5.556" fill="#D91149"/><circle cx="1464" cy="166" r="9.5" stroke="#D91149"/><circle cx="1464" cy="166" r="13.5" stroke="#D91149" stroke-opacity=".5"/><circle cx="1607" cy="105.999" r="5.556" fill="#D91149"/><circle cx="1607" cy="106" r="9.5" stroke="#D91149"/><circle cx="1607" cy="106" r="13.5" stroke="#D91149" stroke-opacity=".5"/><circle cx="1777" cy="105.999" r="5.556" fill="#D91149"/><circle cx="1777" cy="106" r="9.5" stroke="#D91149"/><circle cx="1777" cy="106" r="13.5" stroke="#D91149" stroke-opacity=".5"/></svg>